# xmcd
#
# Track frame offsets: 
#        150
#        12748
#        33068
#        46233
#        65796
#        79899
#        92444
#        102317
#        116397
#        129306
#        142236
#        154416
#        166719
#        185730
#        198822
#        209592
#        222361
#        230534
#        240548
#        253728
#        263310
#        276047
#        289550
#
# Disc length: 4045 seconds
#
# Revision: 0
# Processed by: cddbd v1.5.2PL0 Copyright (c) Steve Scherf et al.
# Submitted via: ExactAudioCopyFreeDBPlugin 1.0
#
DISCID=490fcb17
DTITLE=Various Artist -  Blues Giants
DYEAR=2010
DGENRE=Blues
TTITLE0=B.B. King - Why Do Everything Happen To Me
TTITLE1=Muddy Waters - I Got My Brand On You
TTITLE2=Muddy Waters - Hoochie Coochie Man
TTITLE3=Muddy Waters - Tiger In Your Tank
TTITLE4=Etta James - I Just Want To Make Love To You
TTITLE5=Etta James (With Harvey Fuqua) - If I Can't Have You
TTITLE6=Fats Domino - Goin' Home
TTITLE7=Howlin' Wolf - Smokestack Lightnin'
TTITLE8=Robert Johnson - Preachin' Blues
TTITLE9=Muddy Waters - I Feel So Good
TTITLE10=Fats Domino - Something's Wrong
TTITLE11=Howlin' Wolf - Spoonful
TTITLE12=Muddy Waters - I've Got My Mojo Working
TTITLE13=Etta James - All I Could Do Was Cry
TTITLE14=Fats Domino - Blueberry Hill
TTITLE15=Howlin' Wolf - Back Door Man
TTITLE16=Fats Domino - I'm In Love Again
TTITLE17=Robert Johnson - Little Queen Of Spades
TTITLE18=B:B.King - When My Heart Beats Like A Hammer
TTITLE19=Fats Domino - I'm Walkin'
TTITLE20=B.B.King - Boogie Woogie Woman
TTITLE21=B.B.King - Troubles, Troubles, Troubles
TTITLE22=Etta James - At Last
EXTD=
EXTT0=
EXTT1=
EXTT2=
EXTT3=
EXTT4=
EXTT5=
EXTT6=
EXTT7=
EXTT8=
EXTT9=
EXTT10=
EXTT11=
EXTT12=
EXTT13=
EXTT14=
EXTT15=
EXTT16=
EXTT17=
EXTT18=
EXTT19=
EXTT20=
EXTT21=
EXTT22=
PLAYORDER=
